<?xml version="1.0" encoding="utf-8"?>
<!-- Generator: Adobe Illustrator 16.0.0, SVG Export Plug-In . SVG Version: 6.00 Build 0)  -->
<!DOCTYPE svg PUBLIC "-//W3C//DTD SVG 1.1//EN" "http://www.w3.org/Graphics/SVG/1.1/DTD/svg11.dtd">
<svg version="1.1" xmlns="http://www.w3.org/2000/svg" xmlns:xlink="http://www.w3.org/1999/xlink" x="0px" y="0px" width="728.5px"
	 height="515.91px" viewBox="0 0 728.5 515.91" enable-background="new 0 0 728.5 515.91" xml:space="preserve">
<g id="Layer_1">
</g>
<g id="Layer_2">
	<g id="XMLID_1_">
		<g>
			<path fill="#FEFDF5" d="M445.671,283c0,0,92.66-30.67-9.34,97.33l1.34-28.66c0,0,37.33-48,7.33-50.67L445.671,283z"/>
			<path fill="#FEFDF5" d="M430.001,280.24l-6,27.76c-28.881,4.03-56.201,5.54-81.211,5.45c0.8-11.101,3.48-21.33,6.26-29.37
				C374.651,285.08,401.96,284.17,430.001,280.24z"/>
			<path fill="#FEFDF5" d="M421.671,326.33l-7.631,32.06c-99.84,24-202.96-9.72-202.96-9.72L201,313.8
				C292.33,352.98,421.671,326.33,421.671,326.33z"/>
			<path fill="#E12B26" d="M377.101,91.67c1.471-0.25,82.189-13.59,41.4,68c-8,16-22.33,26.66-16,59c0,0-18.551-29.63,0-64.34
				C435.81,92,378.331,91.67,377.101,91.67z"/>
			<path fill="#FEFDF5" d="M407.22,382.19c0,0-5.02,19.96-16.51,30.14C379.511,422.26,251,415.67,243,409s-26-38.67-26-38.67
				C312.11,397.67,407.22,382.19,407.22,382.19z"/>
			<path fill="#E12B26" d="M326.71,206.06c0,0,83.441-29.67,29.87,60.61c0,0-3.86,6.8-7.53,17.41c-7.58-0.29-15.01-0.75-22.26-1.35
				c0.62-11.801,5.01-24.78,16.36-37.67C380.151,203.06,326.71,206.06,326.71,206.06z"/>
			<path fill="#FEFDF5" d="M333.158,313.333c2.873-0.017,5.641-0.057,8.292,0.106c0.448,0.003,0.891,0.008,1.34,0.011
				c0.8-11.101,3.48-21.33,6.26-29.37c-7.58-0.29-15.01-0.75-22.26-1.35c-0.63,11.8,2.5,22.42,6.19,30.6
				C333.039,313.331,333.099,313.332,333.158,313.333z"/>
			<path fill="#FEFDF5" d="M326.79,282.73c-0.63,11.8,2.5,22.42,6.19,30.6C251.62,311.69,197,293.67,197,293.67l-11.33-42
				C185.67,251.67,245.01,275.96,326.79,282.73z"/>
			<path fill="#E12B26" d="M288.7,105.01c1.51,0.3,64.56,13.4,24.97,71.66c-23.34,34.33-22,37.33-16,56.33c0,0-33-39.67,0-69
				C330.15,135.13,289.96,105.93,288.7,105.01z"/>
			<path fill="#E12B26" d="M217,133.96c0,0,83.44-29.67,29.88,60.61c0,0-17.44,30.72-13.44,63.39c0,0-37-43,0-85
				S217,133.96,217,133.96z"/>
		</g>
		<g>
			<path fill="none" stroke="#000000" stroke-miterlimit="10" d="M326.79,282.73c0.62-11.801,5.01-24.78,16.36-37.67
				c37.001-42-16.44-39-16.44-39s83.441-29.67,29.87,60.61c0,0-3.86,6.8-7.53,17.41"/>
			<path fill="none" stroke="#000000" stroke-miterlimit="10" d="M233.44,257.96c0,0-37-43,0-85s-16.44-39-16.44-39
				s83.44-29.67,29.88,60.61C246.88,194.57,229.44,225.29,233.44,257.96z"/>
			<path fill="none" stroke="#000000" stroke-miterlimit="10" d="M349.05,284.08c-7.58-0.29-15.01-0.75-22.26-1.35
				c-81.78-6.771-141.12-31.061-141.12-31.061l11.33,42c0,0,54.62,18.021,135.98,19.66c0.059,0.001,0.119,0.002,0.178,0.003
				c2.873-0.017,5.641-0.057,8.292,0.106c0.448,0.003,0.891,0.008,1.34,0.011c25.01,0.09,52.33-1.42,81.211-5.45l6-27.76
				C401.96,284.17,374.651,285.08,349.05,284.08z"/>
			<path fill="none" stroke="#000000" stroke-miterlimit="10" d="M288.67,105c0,0,0.01,0.01,0.03,0.01"/>
			<path fill="none" stroke="#000000" stroke-miterlimit="10" d="M288.7,105.01c1.51,0.3,64.56,13.4,24.97,71.66
				c-23.34,34.33-22,37.33-16,56.33c0,0-33-39.67,0-69C330.15,135.13,289.96,105.93,288.7,105.01z"/>
			<path fill="none" stroke="#000000" stroke-miterlimit="10" d="M377.101,91.67c-0.01,0-0.02,0-0.02,0"/>
			<path fill="none" stroke="#000000" stroke-miterlimit="10" d="M377.101,91.67c1.471-0.25,82.189-13.59,41.4,68
				c-8,16-22.33,26.66-16,59c0,0-18.551-29.63,0-64.34C435.81,92,378.331,91.67,377.101,91.67z"/>
			<path fill="none" stroke="#000000" stroke-miterlimit="10" d="M201,313.8l10.08,34.87c0,0,103.12,33.72,202.96,9.72l7.631-32.06
				C421.671,326.33,292.33,352.98,201,313.8z"/>
			<path fill="none" stroke="#000000" stroke-miterlimit="10" d="M217,370.33c0,0,18,32,26,38.67s136.511,13.26,147.71,3.33
				c11.49-10.18,16.51-30.14,16.51-30.14S312.11,397.67,217,370.33z"/>
			<path fill="none" stroke="#000000" stroke-miterlimit="10" d="M445.671,283c0,0,92.66-30.67-9.34,97.33l1.34-28.66
				c0,0,37.33-48,7.33-50.67L445.671,283z"/>
		</g>
	</g>
	<rect x="328" y="317" fill="none" width="18" height="6"/>
</g>
</svg>
